<svg class="icon" viewBox="0 0 1024 1024" version="1.1" xmlns="http://www.w3.org/2000/svg"
     width="200" height="200">
    <path d="M907.27 483.78a273.58 273.58 0 0 0-119.83-70.35 162.7 162.7 0 0 0 76.65-138c0-89.68-73-162.64-162.64-162.64a162.61 162.61 0 0 0-136.63 74.38 196.28 196.28 0 0 0-104.92 2.43 162.59 162.59 0 0 0-138.16-76.82c-89.69 0-162.65 73-162.65 162.65a162.68 162.68 0 0 0 76.2 137.71 275.45 275.45 0 0 0-197.45 264 25 25 0 0 0 50 0 225.1 225.1 0 0 1 225.1-225.09 25 25 0 0 0 19.13-8.91 197.16 197.16 0 0 0 81.19 100.56 324.87 324.87 0 0 0-221.38 307.75 25 25 0 0 0 50 0 274.35 274.35 0 1 1 548.7 0 25 25 0 0 0 50 0 324.88 324.88 0 0 0-220.75-307.52 197.18 197.18 0 0 0 79.28-94.77 24.9 24.9 0 0 0 13.64 4 225.08 225.08 0 0 1 225.09 225.1 25 25 0 0 0 50 0 273.29 273.29 0 0 0-80.57-194.48z m-205.82-321a112.65 112.65 0 0 1 11 224.75q0.27-5.12 0.27-10.29a196.17 196.17 0 0 0-100.24-171 112.63 112.63 0 0 1 88.97-43.45z m-379.71 0a112.62 112.62 0 0 1 92 47.68 196.12 196.12 0 0 0-93.12 166.79c0 3.63 0.11 7.24 0.3 10.82a112.65 112.65 0 0 1 0.78-225.29z m0 240.88v-5.87c0.21 2.07 0.47 4.12 0.75 6.17z m195 119.65c-80.54 0-146.06-65.52-146.06-146.06s65.52-146.06 146.06-146.06 146 65.53 146 146.06-65.49 146.06-146.02 146.06z"
          ></path>
</svg>
